<?xml version="1.0" encoding="UTF-8" standalone="no"?>
<!DOCTYPE svg PUBLIC "-//W3C//DTD SVG 1.1//EN" "http://www.w3.org/Graphics/SVG/1.1/DTD/svg11.dtd">
<svg width="100%" height="100%" viewBox="0 0 1646 656" version="1.1" xmlns="http://www.w3.org/2000/svg" xmlns:xlink="http://www.w3.org/1999/xlink" xml:space="preserve" xmlns:serif="http://www.serif.com/" style="fill-rule:evenodd;clip-rule:evenodd;stroke-linejoin:round;stroke-miterlimit:2;">
    <g transform="matrix(2.08333,0,0,2.08333,-1042.32,-49.589)">
        <g transform="matrix(2.00418,0,0,1.50197,-2312.3,-334.859)">
            <g id="light_mode" transform="matrix(9.43507,0,0,12.5899,-1548.49,-5694.56)">
                <path d="M340.413,476.337C341.116,476.058 341.882,475.919 342.71,475.919C343.964,475.919 345.082,476.246 346.064,476.9L344.441,478.524C343.924,478.233 343.347,478.087 342.71,478.087C342.354,478.087 342.019,478.129 341.705,478.215L340.413,476.337ZM348.506,480.349C348.619,480.835 348.675,481.355 348.675,481.907C348.675,483.688 348.089,485.134 346.917,486.243C345.753,487.352 344.351,487.907 342.71,487.907C341.023,487.907 339.605,487.345 338.456,486.22C337.316,485.095 336.746,483.657 336.746,481.907C336.746,480.897 336.938,479.993 337.323,479.194L339.103,481.78C339.102,481.822 339.101,481.864 339.101,481.907C339.101,483.024 339.449,483.942 340.144,484.661C340.847,485.372 341.703,485.727 342.71,485.727C343.734,485.727 344.589,485.368 345.277,484.649C345.825,484.077 346.157,483.388 346.273,482.583L348.506,480.349ZM312.86,487.579L312.86,485.727L319.974,478.075L315.31,478.075L315.31,480.255L313.411,480.255L313.411,476.235L322.622,476.235L322.622,478.216L315.485,485.727L320.677,485.727L320.677,483.407L322.622,483.407L322.622,487.579L312.86,487.579ZM336.973,485.598L336.973,487.579L332.707,487.579L332.707,485.915C331.598,487.149 330.246,487.766 328.653,487.766C327.176,487.766 325.879,487.263 324.762,486.255C323.645,485.247 323.086,483.813 323.086,481.954C323.086,480.087 323.66,478.614 324.809,477.536C325.957,476.458 327.254,475.919 328.699,475.919C330.231,475.919 331.567,476.528 332.707,477.747L332.707,473.259L330.528,473.259L330.528,471.278L334.934,471.278L334.934,485.598L336.973,485.598ZM325.465,481.895C325.465,483.145 325.817,484.106 326.52,484.778C327.231,485.45 328.078,485.786 329.063,485.786C330.016,485.786 330.86,485.434 331.594,484.731C332.336,484.02 332.707,483.04 332.707,481.79C332.707,480.532 332.328,479.583 331.571,478.942C330.821,478.302 329.977,477.981 329.039,477.981C328.031,477.981 327.184,478.36 326.496,479.118C325.809,479.868 325.465,480.794 325.465,481.895Z" style="fill:rgb(53,56,61);"/>
            </g>
        </g>
        <g transform="matrix(2.00418,0,0,1.50197,-2312.3,-334.859)">
            <g transform="matrix(0.498956,0,0,0.665794,1288.71,1.11517)">
                <path d="M678.295,459.831L718.538,432.137L732.385,452.258C732.385,452.258 796.586,545.55 796.586,545.55L985.101,356.987L1019.65,391.526L810.379,600.848C805.249,605.979 798.104,608.564 790.879,607.903C783.654,607.242 777.097,603.403 772.984,597.426L678.295,459.831Z" style="fill:rgb(94,199,134);"/>
            </g>
        </g>
    </g>
</svg>
